# xmcd CD database file
#
# Track frame offsets:
#	150
#	17316
#	32430
#	49263
#	67953
#	83156
#	105421
#	121740
#	135261
#	150449
#	166399
#	181028
#	198384
#	214682
#
# Disc length: 3071 seconds
#
# Revision: 0
# Processed by: cddbd v1.5.2PL0 Copyright (c) Steve Scherf et al.
# Submitted via: CDex 1.51
#
DISCID=9d0bfd0e
DTITLE=VARIOS - INSENSATO CORAÇÃO
DYEAR=2011
DGENRE=NOVELA
TTITLE0=FIREWORK
TTITLE1=ALL THE LOVERS
TTITLE2=I DON'T KNOW WHAT TO DO
TTITLE3=HOW SOON IS NOW (DIRTY SOUTH)
TTITLE4=CALLING OUT YOUR NAME
TTITLE5=WHEN YOU GOT A GOOD THING
TTITLE6=TALKING TO THE MOON
TTITLE7=I'LL HELP YOU STAY
TTITLE8=BRING ME THE DAWN
TTITLE9=LIVE IT UP
TTITLE10=LET YOU GO
TTITLE11=THE BEST OF IT
TTITLE12=C'EST LA VIE STREET
TTITLE13=CONVINCE ME
EXTD=YEAR: 2011
EXTT0=
EXTT1=
EXTT2=
EXTT3=
EXTT4=
EXTT5=
EXTT6=
EXTT7=
EXTT8=
EXTT9=
EXTT10=
EXTT11=
EXTT12=
EXTT13=
PLAYORDER=
